<mxfile host="app.diagrams.net" agent="Mozilla/5.0 (Windows NT 10.0; Win64; x64) AppleWebKit/537.36 (KHTML, like Gecko) Chrome/129.0.0.0 Safari/537.36" version="24.7.17">
  <diagram id="C5RBs43oDa-KdzZeNtuy" name="Page-1">
    <mxGraphModel dx="1021" dy="541" grid="1" gridSize="10" guides="1" tooltips="1" connect="1" arrows="1" fold="1" page="1" pageScale="1" pageWidth="827" pageHeight="1169" math="0" shadow="0">
      <root>
        <mxCell id="WIyWlLk6GJQsqaUBKTNV-0" />
        <mxCell id="WIyWlLk6GJQsqaUBKTNV-1" parent="WIyWlLk6GJQsqaUBKTNV-0" />
        <mxCell id="KuttADsBWDB6IhMgg4Hu-2" value="" style="edgeStyle=orthogonalEdgeStyle;rounded=0;orthogonalLoop=1;jettySize=auto;html=1;" edge="1" parent="WIyWlLk6GJQsqaUBKTNV-1" source="KuttADsBWDB6IhMgg4Hu-0">
          <mxGeometry relative="1" as="geometry">
            <mxPoint x="415" y="200" as="targetPoint" />
            <Array as="points">
              <mxPoint x="415" y="180" />
              <mxPoint x="415" y="180" />
            </Array>
          </mxGeometry>
        </mxCell>
        <mxCell id="KuttADsBWDB6IhMgg4Hu-0" value="&lt;font style=&quot;font-size: 14px;&quot;&gt;Start&lt;/font&gt;" style="ellipse;whiteSpace=wrap;html=1;" vertex="1" parent="WIyWlLk6GJQsqaUBKTNV-1">
          <mxGeometry x="354" y="70" width="120" height="80" as="geometry" />
        </mxCell>
        <mxCell id="KuttADsBWDB6IhMgg4Hu-4" value="" style="edgeStyle=orthogonalEdgeStyle;rounded=0;orthogonalLoop=1;jettySize=auto;html=1;" edge="1" parent="WIyWlLk6GJQsqaUBKTNV-1" source="KuttADsBWDB6IhMgg4Hu-1">
          <mxGeometry relative="1" as="geometry">
            <mxPoint x="415" y="340" as="targetPoint" />
          </mxGeometry>
        </mxCell>
        <mxCell id="KuttADsBWDB6IhMgg4Hu-5" style="edgeStyle=orthogonalEdgeStyle;rounded=0;orthogonalLoop=1;jettySize=auto;html=1;exitX=0.5;exitY=0;exitDx=0;exitDy=0;" edge="1" parent="WIyWlLk6GJQsqaUBKTNV-1" source="KuttADsBWDB6IhMgg4Hu-1">
          <mxGeometry relative="1" as="geometry">
            <mxPoint x="415" y="210" as="targetPoint" />
          </mxGeometry>
        </mxCell>
        <mxCell id="KuttADsBWDB6IhMgg4Hu-1" value="&lt;font style=&quot;font-size: 12px;&quot;&gt;output &quot;Enter &quot;deposit&quot;, &quot;interst&quot;, &quot;payments frequency&quot; and &quot;time&quot;&quot;&lt;/font&gt;&quot;" style="shape=parallelogram;perimeter=parallelogramPerimeter;whiteSpace=wrap;html=1;fixedSize=1;" vertex="1" parent="WIyWlLk6GJQsqaUBKTNV-1">
          <mxGeometry x="310" y="180" width="210" height="80" as="geometry" />
        </mxCell>
        <mxCell id="KuttADsBWDB6IhMgg4Hu-7" value="" style="edgeStyle=orthogonalEdgeStyle;rounded=0;orthogonalLoop=1;jettySize=auto;html=1;" edge="1" parent="WIyWlLk6GJQsqaUBKTNV-1" source="KuttADsBWDB6IhMgg4Hu-3">
          <mxGeometry relative="1" as="geometry">
            <mxPoint x="415" y="450" as="targetPoint" />
          </mxGeometry>
        </mxCell>
        <mxCell id="KuttADsBWDB6IhMgg4Hu-3" value="input values for the variables" style="shape=parallelogram;perimeter=parallelogramPerimeter;whiteSpace=wrap;html=1;fixedSize=1;" vertex="1" parent="WIyWlLk6GJQsqaUBKTNV-1">
          <mxGeometry x="300" y="290" width="230" height="60" as="geometry" />
        </mxCell>
        <mxCell id="KuttADsBWDB6IhMgg4Hu-16" value="" style="edgeStyle=orthogonalEdgeStyle;rounded=0;orthogonalLoop=1;jettySize=auto;html=1;" edge="1" parent="WIyWlLk6GJQsqaUBKTNV-1" source="KuttADsBWDB6IhMgg4Hu-6" target="KuttADsBWDB6IhMgg4Hu-15">
          <mxGeometry relative="1" as="geometry" />
        </mxCell>
        <mxCell id="KuttADsBWDB6IhMgg4Hu-6" value="counting &quot;result&quot; and &quot;income&quot;&lt;div&gt;A = P * (1 + r/n)^(n*t)&lt;/div&gt;&lt;div&gt;I = A - P&lt;/div&gt;" style="whiteSpace=wrap;html=1;" vertex="1" parent="WIyWlLk6GJQsqaUBKTNV-1">
          <mxGeometry x="330" y="390" width="170" height="60" as="geometry" />
        </mxCell>
        <mxCell id="KuttADsBWDB6IhMgg4Hu-19" value="" style="edgeStyle=orthogonalEdgeStyle;rounded=0;orthogonalLoop=1;jettySize=auto;html=1;" edge="1" parent="WIyWlLk6GJQsqaUBKTNV-1" source="KuttADsBWDB6IhMgg4Hu-15" target="KuttADsBWDB6IhMgg4Hu-18">
          <mxGeometry relative="1" as="geometry" />
        </mxCell>
        <mxCell id="KuttADsBWDB6IhMgg4Hu-15" value="output the values of the &quot;deposit&quot;, &quot;result&quot; and &quot;income&quot;" style="shape=parallelogram;perimeter=parallelogramPerimeter;whiteSpace=wrap;html=1;fixedSize=1;" vertex="1" parent="WIyWlLk6GJQsqaUBKTNV-1">
          <mxGeometry x="310" y="490" width="210" height="60" as="geometry" />
        </mxCell>
        <mxCell id="KuttADsBWDB6IhMgg4Hu-18" value="&lt;font style=&quot;font-size: 14px;&quot;&gt;Finish&lt;/font&gt;" style="ellipse;whiteSpace=wrap;html=1;" vertex="1" parent="WIyWlLk6GJQsqaUBKTNV-1">
          <mxGeometry x="340" y="590" width="150" height="80" as="geometry" />
        </mxCell>
      </root>
    </mxGraphModel>
  </diagram>
</mxfile>
